<svg width="1117" height="77" viewBox="0 0 1117 77" fill="none" xmlns="http://www.w3.org/2000/svg">
<g clip-path="url(#clip0_338_197)">
<path d="M19.32 59.84C14.44 59.84 10.54 58.46 7.62 55.7C4.74 52.9 3.3 48.7 3.3 43.1V32.9C3.3 27.42 4.74 23.26 7.62 20.42C10.54 17.58 14.44 16.16 19.32 16.16C24.24 16.16 28.14 17.58 31.02 20.42C33.94 23.26 35.4 27.42 35.4 32.9V43.1C35.4 48.7 33.94 52.9 31.02 55.7C28.14 58.46 24.24 59.84 19.32 59.84ZM19.32 54.2C22.64 54.2 25.1 53.26 26.7 51.38C28.3 49.46 29.1 46.78 29.1 43.34V32.54C29.1 29.1 28.24 26.46 26.52 24.62C24.8 22.74 22.4 21.8 19.32 21.8C16.2 21.8 13.8 22.76 12.12 24.68C10.44 26.56 9.6 29.18 9.6 32.54V43.34C9.6 46.86 10.4 49.56 12 51.44C13.64 53.28 16.08 54.2 19.32 54.2ZM54.0919 59V21.44H53.1319L46.2319 35.6H39.5719L48.8719 17H60.3919V59H54.0919Z" fill="black"/>
<path d="M99.99 48.92C97.43 48.92 95.4 48.2 93.9 46.76C92.4 45.3 91.65 43.2 91.65 40.46V35.54C91.65 32.8 92.4 30.71 93.9 29.27C95.4 27.81 97.43 27.08 99.99 27.08C102.51 27.08 104.45 27.78 105.81 29.18C107.19 30.58 107.88 32.49 107.88 34.91V35.09H104.67V34.82C104.67 33.4 104.28 32.24 103.5 31.34C102.74 30.44 101.57 29.99 99.99 29.99C98.39 29.99 97.14 30.48 96.24 31.46C95.34 32.42 94.89 33.76 94.89 35.48V40.52C94.89 42.22 95.34 43.56 96.24 44.54C97.14 45.52 98.39 46.01 99.99 46.01C101.57 46.01 102.74 45.56 103.5 44.66C104.28 43.74 104.67 42.58 104.67 41.18V40.67H107.88V41.09C107.88 43.51 107.19 45.42 105.81 46.82C104.45 48.22 102.51 48.92 99.99 48.92ZM118.487 48.92C117.007 48.92 115.687 48.62 114.527 48.02C113.387 47.4 112.487 46.52 111.827 45.38C111.167 44.24 110.837 42.89 110.837 41.33V40.88C110.837 39.32 111.167 37.98 111.827 36.86C112.487 35.72 113.387 34.84 114.527 34.22C115.687 33.6 117.007 33.29 118.487 33.29C119.967 33.29 121.287 33.6 122.447 34.22C123.607 34.84 124.517 35.72 125.177 36.86C125.837 37.98 126.167 39.32 126.167 40.88V41.33C126.167 42.89 125.837 44.24 125.177 45.38C124.517 46.52 123.607 47.4 122.447 48.02C121.287 48.62 119.967 48.92 118.487 48.92ZM118.487 46.16C119.847 46.16 120.947 45.73 121.787 44.87C122.647 43.99 123.077 42.78 123.077 41.24V40.97C123.077 39.43 122.657 38.23 121.817 37.37C120.977 36.49 119.867 36.05 118.487 36.05C117.147 36.05 116.047 36.49 115.187 37.37C114.347 38.23 113.927 39.43 113.927 40.97V41.24C113.927 42.78 114.347 43.99 115.187 44.87C116.047 45.73 117.147 46.16 118.487 46.16ZM130.014 48.5V33.71H133.044V35.93H133.524C133.804 35.33 134.304 34.77 135.024 34.25C135.744 33.73 136.814 33.47 138.234 33.47C139.354 33.47 140.344 33.72 141.204 34.22C142.084 34.72 142.774 35.43 143.274 36.35C143.774 37.25 144.024 38.34 144.024 39.62V48.5H140.934V39.86C140.934 38.58 140.614 37.64 139.974 37.04C139.334 36.42 138.454 36.11 137.334 36.11C136.054 36.11 135.024 36.53 134.244 37.37C133.484 38.21 133.104 39.43 133.104 41.03V48.5H130.014ZM154.531 48.92C152.651 48.92 151.091 48.5 149.851 47.66C148.611 46.82 147.851 45.55 147.571 43.85L150.451 43.16C150.611 43.98 150.881 44.63 151.261 45.11C151.641 45.59 152.111 45.93 152.671 46.13C153.251 46.33 153.871 46.43 154.531 46.43C155.511 46.43 156.261 46.24 156.781 45.86C157.321 45.48 157.591 44.99 157.591 44.39C157.591 43.79 157.341 43.35 156.841 43.07C156.341 42.79 155.601 42.56 154.621 42.38L153.601 42.2C152.601 42.02 151.691 41.76 150.871 41.42C150.051 41.08 149.401 40.61 148.921 40.01C148.441 39.41 148.201 38.64 148.201 37.7C148.201 36.3 148.721 35.22 149.761 34.46C150.801 33.68 152.181 33.29 153.901 33.29C155.561 33.29 156.921 33.67 157.981 34.43C159.061 35.17 159.761 36.18 160.081 37.46L157.201 38.27C157.021 37.37 156.641 36.74 156.061 36.38C155.481 36 154.761 35.81 153.901 35.81C153.061 35.81 152.401 35.97 151.921 36.29C151.441 36.59 151.201 37.02 151.201 37.58C151.201 38.18 151.431 38.62 151.891 38.9C152.371 39.18 153.011 39.39 153.811 39.53L154.861 39.71C155.921 39.89 156.891 40.14 157.771 40.46C158.651 40.78 159.341 41.24 159.841 41.84C160.361 42.44 160.621 43.24 160.621 44.24C160.621 45.72 160.071 46.87 158.971 47.69C157.871 48.51 156.391 48.92 154.531 48.92ZM169.903 48.77C168.783 48.77 167.783 48.52 166.903 48.02C166.023 47.52 165.333 46.81 164.833 45.89C164.333 44.97 164.083 43.87 164.083 42.59V33.71H167.173V42.38C167.173 43.66 167.493 44.61 168.133 45.23C168.773 45.83 169.663 46.13 170.803 46.13C172.063 46.13 173.073 45.71 173.833 44.87C174.613 44.01 175.003 42.78 175.003 41.18V33.71H178.093V48.5H175.063V46.28H174.583C174.303 46.88 173.803 47.45 173.083 47.99C172.363 48.51 171.303 48.77 169.903 48.77ZM182.661 48.5V27.5H185.751V48.5H182.661ZM195.887 48.5C194.987 48.5 194.267 48.23 193.727 47.69C193.207 47.15 192.947 46.43 192.947 45.53V36.32H188.867V33.71H192.947V28.82H196.037V33.71H200.447V36.32H196.037V44.99C196.037 45.59 196.317 45.89 196.877 45.89H199.967V48.5H195.887ZM208.638 48.92C207.578 48.92 206.628 48.74 205.788 48.38C204.968 48.02 204.308 47.49 203.808 46.79C203.328 46.09 203.088 45.24 203.088 44.24C203.088 43.22 203.328 42.38 203.808 41.72C204.308 41.04 204.978 40.53 205.818 40.19C206.678 39.85 207.648 39.68 208.728 39.68H213.228V38.72C213.228 37.86 212.968 37.17 212.448 36.65C211.928 36.13 211.128 35.87 210.048 35.87C208.988 35.87 208.178 36.12 207.618 36.62C207.058 37.12 206.688 37.77 206.508 38.57L203.628 37.64C203.868 36.84 204.248 36.12 204.768 35.48C205.308 34.82 206.018 34.29 206.898 33.89C207.778 33.49 208.838 33.29 210.078 33.29C211.998 33.29 213.508 33.78 214.608 34.76C215.708 35.74 216.258 37.13 216.258 38.93V45.02C216.258 45.62 216.538 45.92 217.098 45.92H218.358V48.5H216.048C215.348 48.5 214.778 48.32 214.338 47.96C213.898 47.6 213.678 47.11 213.678 46.49V46.4H213.228C213.068 46.7 212.828 47.05 212.508 47.45C212.188 47.85 211.718 48.2 211.098 48.5C210.478 48.78 209.658 48.92 208.638 48.92ZM209.088 46.37C210.328 46.37 211.328 46.02 212.088 45.32C212.848 44.6 213.228 43.62 213.228 42.38V42.08H208.908C208.088 42.08 207.428 42.26 206.928 42.62C206.428 42.96 206.178 43.47 206.178 44.15C206.178 44.83 206.438 45.37 206.958 45.77C207.478 46.17 208.188 46.37 209.088 46.37ZM225.887 48.5C224.987 48.5 224.267 48.23 223.727 47.69C223.207 47.15 222.947 46.43 222.947 45.53V36.32H218.867V33.71H222.947V28.82H226.037V33.71H230.447V36.32H226.037V44.99C226.037 45.59 226.317 45.89 226.877 45.89H229.967V48.5H225.887ZM234.077 48.5V33.71H237.167V48.5H234.077ZM235.637 31.7C235.037 31.7 234.527 31.51 234.107 31.13C233.707 30.73 233.507 30.22 233.507 29.6C233.507 28.98 233.707 28.48 234.107 28.1C234.527 27.7 235.037 27.5 235.637 27.5C236.257 27.5 236.767 27.7 237.167 28.1C237.567 28.48 237.767 28.98 237.767 29.6C237.767 30.22 237.567 30.73 237.167 31.13C236.767 31.51 236.257 31.7 235.637 31.7ZM248.683 48.92C247.203 48.92 245.883 48.62 244.723 48.02C243.583 47.4 242.683 46.52 242.023 45.38C241.363 44.24 241.033 42.89 241.033 41.33V40.88C241.033 39.32 241.363 37.98 242.023 36.86C242.683 35.72 243.583 34.84 244.723 34.22C245.883 33.6 247.203 33.29 248.683 33.29C250.163 33.29 251.483 33.6 252.643 34.22C253.803 34.84 254.713 35.72 255.373 36.86C256.033 37.98 256.363 39.32 256.363 40.88V41.33C256.363 42.89 256.033 44.24 255.373 45.38C254.713 46.52 253.803 47.4 252.643 48.02C251.483 48.62 250.163 48.92 248.683 48.92ZM248.683 46.16C250.043 46.16 251.143 45.73 251.983 44.87C252.843 43.99 253.273 42.78 253.273 41.24V40.97C253.273 39.43 252.853 38.23 252.013 37.37C251.173 36.49 250.063 36.05 248.683 36.05C247.343 36.05 246.243 36.49 245.383 37.37C244.543 38.23 244.123 39.43 244.123 40.97V41.24C244.123 42.78 244.543 43.99 245.383 44.87C246.243 45.73 247.343 46.16 248.683 46.16ZM260.21 48.5V33.71H263.24V35.93H263.72C264 35.33 264.5 34.77 265.22 34.25C265.94 33.73 267.01 33.47 268.43 33.47C269.55 33.47 270.54 33.72 271.4 34.22C272.28 34.72 272.97 35.43 273.47 36.35C273.97 37.25 274.22 38.34 274.22 39.62V48.5H271.13V39.86C271.13 38.58 270.81 37.64 270.17 37.04C269.53 36.42 268.65 36.11 267.53 36.11C266.25 36.11 265.22 36.53 264.44 37.37C263.68 38.21 263.3 39.43 263.3 41.03V48.5H260.21Z" fill="black"/>
<circle cx="1088" cy="38.5" r="28.5" fill="#F3F3F3" stroke="#191A23"/>
<path d="M1079 41.14V35.5H1096.76V41.14H1079Z" fill="black"/>
</g>
<defs>
<clipPath id="clip0_338_197">
<rect width="1117" height="77" fill="white"/>
</clipPath>
</defs>
</svg>
